<?xml version="1.0" encoding="UTF-8" standalone="no"?><!DOCTYPE svg PUBLIC "-//W3C//DTD SVG 1.1//EN" "http://www.w3.org/Graphics/SVG/1.1/DTD/svg11.dtd"><svg width="100%" height="100%" viewBox="0 0 3959 3959" version="1.1" xmlns="http://www.w3.org/2000/svg" xmlns:xlink="http://www.w3.org/1999/xlink" xml:space="preserve" xmlns:serif="http://www.serif.com/" style="fill-rule:evenodd;clip-rule:evenodd;stroke-linejoin:round;stroke-miterlimit:2;"><g><circle cx="1979.17" cy="1979.17" r="1979.17" style="fill:#192236;"/><path d="M1431.35,875.259c-8.413,4.73 -19.038,8.986 -23.024,9.46c-4.428,0 -7.97,1.893 -7.97,4.73c-0,2.366 -3.985,4.73 -8.856,4.73c-4.871,0 -8.854,1.893 -8.854,4.73c0,2.366 -3.985,4.73 -8.856,4.73c-4.871,0 -8.856,1.893 -8.856,4.73c0,2.367 -3.985,4.731 -8.856,4.731c-4.871,-0 -8.856,1.892 -8.856,4.73c0,2.366 -2.655,4.73 -5.754,4.73c-3.1,-0 -36.308,17.03 -73.943,37.842c-37.636,20.339 -80.586,43.99 -95.198,51.558c-14.61,7.569 -43.392,23.65 -63.759,35.476c-20.812,12.298 -39.85,21.758 -42.949,21.758c-3.1,0 -6.2,1.421 -7.085,3.311c-1.771,5.204 -38.522,25.072 -46.049,25.072c-3.541,-0 -6.197,1.89 -6.197,4.73c-0,2.364 -3.986,4.73 -8.856,4.73c-4.871,-0 -8.856,1.892 -8.856,4.73c-0,2.364 -3.986,4.73 -8.414,4.73c-4.87,-0 -9.296,1.419 -10.182,3.311c-0.443,2.364 -24.354,16.083 -52.248,31.692c-121.321,66.221 -188.622,103.59 -192.165,107.375c-2.656,2.364 -7.97,4.256 -12.398,4.256c-4.426,0 -7.968,1.893 -7.968,4.73c-0,2.367 -3.985,4.731 -8.856,4.731c-4.871,-0 -8.856,1.892 -8.856,4.73c-0,2.366 -3.985,4.73 -8.856,4.73c-4.871,-0 -8.854,1.892 -8.854,4.73c-0,2.366 -3.985,4.73 -8.413,4.73c-4.871,-0 -9.299,1.419 -10.185,3.785c-0.442,1.892 -15.055,10.879 -32.322,19.865c-16.826,8.989 -42.064,23.179 -55.348,31.22c-37.636,23.177 -128.846,72.844 -133.274,72.844c-6.642,-0 -30.994,25.071 -37.636,38.788c-8.413,17.028 -7.97,39.259 1.329,54.87c13.284,23.177 34.093,43.516 43.835,43.516c5.756,0 11.07,1.893 12.396,4.259c1.328,2.364 8.856,5.201 16.826,6.622c7.971,1.419 22.581,4.73 32.323,7.568c9.741,2.364 23.911,6.149 30.993,7.568c7.528,1.892 17.27,4.73 22.14,7.096c4.871,2.364 15.053,5.201 22.138,7.094c7.528,1.419 21.255,5.204 30.994,7.568c9.742,2.839 24.354,6.151 32.322,7.569c7.971,1.419 15.498,4.257 16.827,6.623c1.328,2.364 8.856,4.256 17.269,4.256c8.411,0 16.381,1.893 17.71,4.73c1.328,2.364 9.299,4.731 17.712,4.731c8.411,-0 15.938,1.892 17.267,4.256c1.328,2.366 8.856,5.204 16.826,6.622c7.969,1.419 23.024,4.731 33.651,7.568c10.184,2.84 26.566,7.096 36.307,9.934c9.742,2.366 25.681,6.622 35.422,9.46c99.624,26.49 188.179,52.505 195.707,56.763c4.428,2.838 13.725,4.73 20.81,4.73c7.527,0 14.612,1.893 15.94,4.73c1.329,2.364 9.297,4.73 17.71,4.73c8.413,0 15.941,1.893 17.269,4.257c1.329,2.366 10.183,5.203 19.039,6.622c21.697,2.838 72.172,16.557 81.913,22.706c4.428,2.363 15.056,4.256 23.467,4.256c8.413,-0 15.498,1.892 15.498,4.73c-0,2.366 7.97,4.73 17.269,4.73c9.739,0 18.595,1.893 19.924,4.259c1.328,2.364 8.856,5.201 16.826,6.62c7.968,1.893 21.695,4.259 30.108,5.677c8.411,1.893 19.481,4.73 24.352,7.094c4.871,2.367 15.055,5.204 22.138,7.097c7.528,1.418 20.812,4.73 30.11,7.096c8.854,2.837 24.795,7.094 35.422,9.46c10.182,2.838 25.68,7.094 34.094,9.46c8.413,2.364 54.46,15.135 101.837,28.381c47.378,13.245 90.327,26.016 95.198,28.38c4.869,2.366 15.053,5.204 22.138,6.149c22.58,4.258 74.829,17.975 82.799,22.705c4.428,2.366 13.725,4.257 20.81,4.257c7.527,-0 14.169,1.892 15.498,4.258c1.328,2.364 8.856,5.204 16.824,6.623c7.97,1.418 24.797,5.201 36.75,8.041c12.398,2.838 28.782,6.62 36.75,8.041c7.971,1.419 15.498,4.257 16.827,6.621c1.328,2.366 8.856,4.258 17.267,4.258c8.413,0 16.383,1.893 17.712,4.73c1.328,2.364 8.413,4.73 15.498,4.73c7.082,0 13.724,1.893 15.053,4.257c1.328,2.366 10.184,5.204 19.04,6.622c9.297,1.419 24.795,4.73 34.536,7.568c32.765,8.989 53.132,14.19 66.416,17.03c7.528,1.89 17.267,4.73 22.138,7.094c7.528,3.785 88.998,27.435 163.827,47.774c9.742,2.367 25.238,6.623 34.537,8.989c8.856,2.838 23.909,6.623 33.208,8.987c32.765,8.041 38.078,15.609 27.451,38.314c-2.214,5.203 -6.197,13.716 -8.854,18.92c-2.214,5.204 -4.428,13.719 -4.428,18.92c0,5.204 -1.771,9.461 -3.542,9.461c-1.772,-0 -6.2,9.933 -9.299,22.231c-3.542,12.772 -7.97,26.017 -9.742,29.801c-2.656,6.623 -7.525,18.447 -16.824,43.518c-2.214,6.149 -7.97,20.34 -12.841,32.164c-4.871,11.826 -15.939,40.68 -24.352,64.33c-8.413,23.651 -17.712,47.775 -20.369,53.452c-2.657,5.202 -6.64,14.19 -9.296,19.394c-2.214,5.202 -4.428,13.717 -4.428,18.92c-0,5.202 -1.772,9.46 -4.428,9.46c-2.214,0 -4.428,4.257 -4.428,8.987c-0,5.204 -1.772,10.879 -4.428,12.298c-2.214,1.421 -4.428,8.041 -4.428,14.664c-0,6.149 -1.772,11.352 -4.428,11.352c-2.214,0 -4.428,3.311 -4.428,7.096c-0,3.783 -1.772,11.353 -4.426,16.555c-2.214,5.203 -6.2,13.718 -8.856,18.922c-2.214,5.202 -4.428,13.717 -4.428,18.92c-0,5.202 -1.772,9.46 -4.428,9.46c-2.214,0 -4.428,3.312 -4.428,7.095c-0,3.784 -1.771,10.878 -3.985,15.611c-3.543,7.567 -7.528,17.028 -18.153,45.882c-2.214,6.622 -6.199,17.027 -8.856,23.65c-2.214,6.622 -6.199,16.556 -8.413,22.232c-2.214,6.148 -7.085,18.448 -10.628,27.435c-3.54,8.986 -13.281,34.529 -21.252,56.761c-7.97,22.231 -16.383,40.68 -18.152,41.625c-1.772,0.947 -3.543,4.73 -3.543,8.515c0,3.785 -1.771,10.405 -3.985,15.136c-3.985,8.041 -10.184,24.124 -17.712,44.465c-6.199,17.973 -14.61,38.786 -18.596,47.301c-2.214,4.73 -3.985,11.826 -3.985,15.609c0,3.784 -1.771,7.096 -4.428,7.096c-2.214,-0 -4.428,2.837 -4.428,6.149c0,16.082 -11.512,31.691 -23.023,31.691c-6.642,0 -13.284,-2.364 -14.613,-4.73c-1.328,-2.837 -9.298,-4.73 -17.709,-4.73c-8.414,0 -16.384,-2.364 -17.712,-4.73c-1.329,-2.837 -10.628,-4.73 -19.924,-4.73c-9.299,0 -18.598,-2.366 -19.926,-4.73c-1.329,-2.838 -8.413,-4.73 -15.941,-4.73c-7.083,-0 -16.382,-1.893 -20.81,-4.257c-3.985,-2.366 -37.193,-12.299 -73.943,-21.76c-36.307,-9.46 -106.265,-27.906 -154.971,-40.678c-48.706,-12.771 -92.539,-25.543 -97.41,-27.909c-4.871,-1.892 -14.612,-5.203 -22.14,-7.094c-7.082,-1.421 -20.366,-4.73 -28.78,-7.096c-35.864,-9.934 -56.231,-15.137 -69.958,-17.501c-7.97,-1.419 -15.498,-4.257 -16.826,-6.623c-1.326,-2.364 -8.854,-4.256 -17.267,-4.256c-8.413,-0 -16.384,-2.366 -17.712,-4.73c-1.329,-2.367 -9.297,-4.731 -17.71,-4.731c-8.413,0 -15.941,-1.892 -17.269,-4.258c-1.329,-2.364 -10.182,-5.202 -19.038,-6.62c-23.469,-3.312 -41.622,-8.042 -52.249,-12.772c-4.871,-2.366 -14.61,-5.204 -22.138,-7.096c-7.084,-1.419 -21.254,-4.73 -30.993,-7.568c-16.827,-4.258 -27.011,-7.096 -67.304,-18.449c-9.297,-2.364 -22.581,-5.675 -30.108,-7.094c-7.085,-1.892 -17.267,-5.203 -22.138,-7.569c-4.871,-2.364 -37.636,-11.825 -73.058,-20.813c-35.422,-8.987 -69.072,-18.447 -75.271,-20.813c-11.07,-4.256 -35.865,-11.35 -68.63,-20.339c-48.263,-12.771 -51.363,-14.19 -60.219,-34.056c-4.428,-10.407 -8.411,-22.705 -8.411,-26.963c0,-4.731 -1.771,-9.932 -4.428,-11.351c-2.214,-1.421 -4.428,-8.041 -4.428,-14.192c0,-6.149 -1.771,-12.772 -4.428,-14.19c-2.214,-1.419 -4.428,-8.042 -4.428,-14.191c0,-6.149 -1.771,-12.771 -4.428,-14.19c-2.214,-1.419 -4.428,-8.041 -4.428,-14.19c0,-6.149 -1.771,-12.772 -4.428,-14.19c-2.214,-1.419 -4.428,-8.042 -4.428,-14.191c0,-6.148 -1.771,-12.771 -4.426,-14.19c-2.214,-1.419 -4.428,-8.041 -4.428,-14.19c0,-6.151 -1.771,-12.774 -4.428,-14.192c-2.214,-1.419 -4.428,-8.042 -4.428,-14.191c0,-6.148 -1.771,-12.771 -4.428,-14.19c-2.214,-1.419 -4.428,-7.568 -4.428,-13.716c0,-5.678 -1.771,-12.3 -3.542,-14.664c-2.214,-2.838 -8.413,-20.813 -13.725,-40.207c-5.756,-19.394 -11.955,-39.259 -14.169,-43.518c-2.214,-4.73 -3.985,-12.771 -3.985,-17.501c-0,-5.202 -1.772,-10.879 -4.428,-12.298c-2.214,-1.419 -4.428,-7.568 -4.428,-13.717c-0,-5.677 -1.772,-12.3 -3.986,-15.137c-2.212,-2.364 -11.51,-28.854 -20.366,-58.654c-9.299,-29.801 -18.155,-56.289 -20.367,-58.653c-2.214,-2.84 -3.985,-9.462 -3.985,-15.137c-0,-6.149 -1.771,-12.298 -4.428,-13.717c-2.214,-1.421 -4.428,-8.041 -4.428,-14.192c-0,-6.149 -1.771,-12.772 -4.428,-14.191c-2.214,-1.418 -4.428,-8.041 -4.428,-14.661c-0,-6.151 -1.771,-11.353 -4.428,-11.353c-2.214,0 -4.428,-4.73 -4.428,-10.881c-0,-12.298 -9.297,-36.422 -14.168,-36.422c-2.214,0 -3.542,-2.364 -3.542,-5.201c-0,-25.072 -59.776,-28.855 -82.357,-4.733c-25.68,26.491 -25.68,35.005 -3.542,105.011c11.07,35.003 21.254,69.059 22.583,76.629c1.326,7.094 3.983,14.19 6.197,15.609c2.214,1.419 3.985,6.622 3.985,11.826c0,4.73 1.771,12.772 3.985,17.502c2.214,4.256 6.642,17.501 9.742,29.325c3.1,11.827 7.085,23.179 9.299,25.543c1.771,2.838 3.542,9.46 3.542,15.138c0,6.148 2.212,12.297 4.426,13.716c2.214,1.419 4.428,8.042 4.428,14.19c-0,6.149 2.214,12.772 4.428,14.191c2.214,1.421 4.428,8.988 4.428,17.03c-0,7.567 2.214,13.716 4.428,13.716c2.657,0 4.428,6.149 4.428,13.719c-0,8.041 1.771,15.609 4.428,17.028c2.657,1.419 4.428,8.041 4.428,14.664c-0,6.148 2.214,11.352 4.426,11.352c2.657,0 4.428,6.149 4.428,13.717c-0,8.041 2.214,15.609 4.428,17.028c2.657,1.418 4.428,8.041 4.428,14.192c-0,6.149 2.214,12.771 4.428,14.19c2.214,1.419 4.428,8.042 4.428,14.19c-0,6.149 2.214,12.772 4.428,14.191c2.214,1.418 4.428,7.094 4.428,12.297c-0,4.73 1.771,12.772 3.985,17.502c2.655,4.258 11.953,32.639 20.809,62.438c8.856,29.799 17.712,56.289 19.482,59.127c1.328,2.366 5.313,14.19 8.413,26.017c7.527,27.906 12.398,38.785 23.911,52.978c11.068,13.243 52.246,38.314 71.729,43.516c25.68,6.622 53.132,12.771 67.744,15.611c7.971,1.418 15.496,4.256 16.825,6.62c1.328,2.366 9.298,4.259 17.712,4.259c8.413,-0 15.055,1.892 15.055,4.256c-0,2.366 6.64,5.204 14.61,6.623c7.528,1.892 21.254,4.256 29.665,5.675c8.414,1.892 19.484,4.73 24.354,7.096c4.871,2.364 15.054,5.204 22.138,6.623c15.498,2.837 17.712,3.311 141.688,38.787c111.136,31.218 112.907,31.692 190.393,51.558c17.269,4.258 34.536,9.933 38.521,12.299c4.428,2.364 13.727,4.257 20.812,4.257c7.525,-0 14.61,2.364 15.939,4.73c1.328,2.838 9.298,4.73 17.712,4.73c8.413,0 16.381,2.364 17.71,4.73c1.328,2.838 9.298,4.73 17.712,4.73c8.413,0 16.381,1.893 17.709,4.73c1.329,2.366 7.971,4.73 14.17,4.73c11.956,0 37.193,7.568 50.92,14.664c4.426,2.364 13.724,4.257 20.809,4.257c7.528,-0 14.17,1.892 15.498,4.258c1.329,2.364 10.183,5.202 19.039,6.621c22.58,3.311 42.063,8.515 180.651,48.248c51.363,14.663 100.511,28.854 109.808,31.22c8.856,2.364 24.797,6.622 35.422,9.46c10.184,2.838 29.668,6.149 42.949,7.568c13.284,1.418 26.126,4.256 28.338,6.622c2.656,2.364 16.826,4.257 31.881,4.257c34.094,-0 52.689,-12.298 68.187,-44.937c6.199,-13.243 12.396,-24.596 13.725,-26.014c1.328,-1.419 5.313,-12.3 8.856,-25.072c3.099,-12.298 7.084,-22.231 8.413,-22.231c1.771,-0 5.756,-10.406 8.856,-23.651c3.099,-12.771 7.527,-23.65 9.739,-23.65c1.772,-0 3.543,-3.311 3.543,-7.096c-0,-3.783 1.771,-10.879 3.985,-15.609c2.214,-4.257 6.199,-14.664 9.299,-22.232c3.099,-8.041 7.084,-17.501 8.413,-21.286c1.771,-3.783 6.199,-17.028 9.741,-29.8c3.098,-12.297 7.526,-22.231 9.297,-22.231c1.771,-0 3.543,-3.311 3.543,-7.096c-0,-3.783 1.771,-10.879 3.985,-15.609c2.214,-4.257 5.756,-13.245 7.97,-19.866c7.971,-20.812 15.496,-40.206 19.481,-48.721c2.214,-4.257 13.284,-32.637 24.354,-62.912c10.625,-29.8 21.695,-58.18 23.466,-62.436c2.214,-4.259 6.2,-13.719 8.856,-21.287c2.657,-7.096 7.085,-18.449 9.742,-26.016c2.657,-7.094 6.64,-16.555 8.854,-20.813c2.214,-4.73 3.985,-11.824 3.985,-15.609c0,-3.785 2.214,-7.096 4.428,-7.096c2.657,-0 4.428,-5.202 4.428,-11.824c0,-6.623 1.771,-11.827 3.542,-11.827c2.214,0 6.642,-10.405 9.742,-23.65c3.1,-12.771 7.526,-23.65 9.74,-23.65c1.771,-0 3.542,-3.312 3.542,-7.097c-0,-3.782 3.985,-17.501 9.299,-29.799c5.313,-12.298 10.627,-26.488 12.841,-31.692c10.625,-29.801 19.481,-52.504 32.765,-84.196c6.199,-15.137 11.513,-28.382 11.513,-30.275c-0,-1.89 6.197,-17.973 13.724,-36.421c7.528,-18.447 15.498,-37.841 17.27,-43.045c1.771,-5.203 7.525,-19.394 12.839,-31.691c5.313,-12.298 9.299,-26.017 9.299,-29.8c-0,-3.785 2.213,-7.096 4.427,-7.096c2.657,0 4.428,-4.256 4.428,-9.46c0,-5.204 2.214,-9.46 4.428,-9.46c2.657,-0 4.428,-3.311 4.428,-7.096c0,-9.461 19.924,-30.745 28.78,-30.745c3.543,0 6.642,-2.366 6.642,-4.73c0,-2.84 3.986,-4.73 8.854,-4.73c4.871,0 8.856,-2.366 8.856,-4.73c0,-2.84 3.985,-4.73 8.413,-4.73c4.871,-0 9.299,-1.893 10.185,-4.259c0.885,-1.892 15.496,-11.352 32.322,-20.812c17.267,-8.987 51.803,-27.907 77.486,-42.097c25.68,-13.719 47.375,-26.491 47.818,-28.383c0.885,-2.364 5.313,-3.783 10.184,-3.783c4.428,0 8.413,-2.366 8.413,-4.73c0,-2.837 3.986,-4.73 8.856,-4.73c4.871,0 8.856,-2.366 8.856,-4.73c0,-2.84 3.984,-4.73 8.854,-4.73c4.871,-0 8.856,-2.366 8.856,-4.73c0,-2.84 3.985,-4.73 8.856,-4.73c4.871,-0 8.856,-2.366 8.856,-4.732c0,-2.838 3.983,-4.73 8.411,-4.73c4.871,-0 9.299,-1.419 10.185,-3.783c0.885,-1.893 26.123,-17.03 56.676,-33.584c80.583,-43.992 112.022,-62.912 118.219,-71.425c3.1,-3.785 5.756,-19.394 5.756,-34.058c0,-29.799 -4.428,-38.788 -32.765,-64.331c-11.07,-9.46 -30.993,-6.622 -58.002,8.515c-13.727,7.568 -27.897,14.19 -31.437,14.19c-3.542,0 -6.199,1.893 -6.199,4.731c-0,2.366 -3.985,4.73 -8.856,4.73c-4.871,-0 -8.856,1.892 -8.856,4.73c0,2.366 -3.985,4.73 -8.856,4.73c-4.869,-0 -8.854,1.892 -8.854,4.73c0,2.366 -3.985,4.73 -8.856,4.73c-4.871,-0 -8.856,1.892 -8.856,4.73c0,2.366 -3.985,4.73 -8.856,4.73c-4.871,0 -8.854,1.893 -8.854,4.73c0,2.366 -3.985,4.73 -8.856,4.73c-4.871,0 -8.856,1.893 -8.856,4.73c0,2.366 -3.985,4.73 -8.413,4.73c-4.871,0 -9.297,1.421 -10.182,3.312c-1.329,3.311 -77.929,46.355 -187.294,105.011c-21.697,11.824 -40.292,23.176 -41.178,25.069c-0.886,2.364 -5.314,3.785 -10.184,3.785c-4.428,-0 -8.414,1.89 -8.414,4.73c0,2.364 -3.985,4.73 -8.856,4.73c-4.868,-0 -8.854,1.89 -8.854,4.73c0,2.364 -3.985,4.73 -8.856,4.73c-4.87,0 -8.855,1.893 -8.855,4.73c-0,2.364 -3.986,4.73 -8.856,4.73c-4.871,0 -8.854,1.893 -8.854,4.73c-0,2.364 -11.07,4.73 -24.354,4.73c-13.282,0 -24.352,-2.366 -24.352,-4.73c-0,-2.837 -7.971,-4.73 -17.269,-4.73c-9.74,0 -19.039,-2.366 -20.367,-4.73c-1.328,-2.837 -9.299,-4.73 -17.712,-4.73c-8.411,0 -16.382,-2.366 -17.71,-4.73c-1.328,-2.84 -9.299,-4.73 -17.712,-4.73c-8.411,-0 -16.381,-1.893 -17.71,-4.73c-1.328,-2.84 -9.299,-4.73 -17.712,-4.73c-8.413,-0 -15.938,-1.893 -17.267,-4.259c-1.328,-2.364 -8.856,-5.203 -16.826,-6.622c-22.581,-4.257 -46.049,-10.406 -213.86,-57.708c-100.509,-28.381 -114.236,-32.637 -142.573,-40.205c-10.627,-2.366 -26.568,-6.623 -35.422,-9.46c-9.298,-2.366 -22.582,-5.678 -30.11,-7.096c-7.083,-1.893 -17.267,-4.73 -22.138,-7.097c-4.871,-2.364 -14.612,-5.201 -22.138,-6.62c-7.084,-0.947 -22.14,-4.73 -33.208,-7.57c-11.07,-2.837 -26.568,-6.622 -34.538,-8.041c-7.968,-1.419 -15.496,-4.257 -16.824,-6.621c-1.329,-2.366 -8.856,-4.258 -17.269,-4.258c-8.411,-0 -15.939,-1.893 -17.267,-4.256c-1.329,-2.367 -8.856,-5.204 -16.827,-6.623c-7.97,-1.419 -22.58,-4.73 -32.322,-7.568c-9.742,-2.366 -26.123,-7.096 -36.308,-9.934c-10.627,-2.366 -26.565,-6.622 -35.421,-9.46c-9.299,-2.366 -22.581,-5.677 -30.109,-7.096c-7.084,-1.89 -17.269,-5.201 -22.14,-7.568c-7.525,-3.311 -108.036,-31.691 -166.039,-46.829c-43.392,-10.879 -74.386,-19.392 -86.784,-23.65c-7.528,-2.838 -17.71,-4.73 -23.024,-4.73c-4.871,-0 -10.627,-2.364 -11.955,-4.73c-1.329,-2.838 -9.299,-4.73 -17.71,-4.73c-8.413,-0 -16.384,-2.364 -17.712,-4.73c-1.329,-2.838 -9.299,-4.73 -17.71,-4.73c-8.413,-0 -16.384,-2.367 -17.712,-4.731c-1.329,-2.837 -9.299,-4.73 -17.71,-4.73c-8.413,0 -16.384,-2.366 -17.712,-4.73c-1.328,-2.837 -9.742,-4.73 -18.155,-4.73c-8.411,0 -15.053,-2.366 -15.053,-4.73c0,-2.837 -7.97,-4.73 -17.712,-4.73c-9.739,0 -17.71,-2.366 -17.71,-4.73c0,-2.838 -6.642,-4.73 -15.055,-4.73c-8.413,-0 -16.824,-2.366 -18.153,-4.73c-1.328,-2.84 -9.298,-4.73 -17.712,-4.73c-8.413,-0 -16.381,-2.366 -17.709,-4.73c-1.329,-2.84 -9.299,-4.73 -17.712,-4.73c-8.414,-0 -16.382,-2.366 -17.71,-4.73c-1.329,-2.84 -9.299,-4.733 -17.712,-4.733c-8.413,0 -16.382,-2.364 -17.71,-4.73c-1.328,-2.837 -8.413,-4.73 -15.941,-4.73c-7.085,0 -16.383,-1.89 -20.809,-4.73c-3.986,-2.364 -36.308,-12.298 -71.732,-21.284c-35.422,-9.46 -67.744,-19.394 -71.729,-21.76c-4.428,-2.364 -11.068,-4.257 -15.496,-4.257c-3.985,0 -13.284,-1.892 -20.812,-4.256c-7.525,-2.366 -22.137,-6.623 -32.322,-9.46c-35.864,-9.934 -56.674,-16.557 -59.773,-18.923c-6.642,-6.148 11.07,-20.339 46.491,-37.367c8.854,-4.258 16.382,-9.46 16.382,-11.352c-0,-2.366 3.985,-3.785 8.413,-3.785c4.871,-0 9.299,-1.419 10.184,-3.783c1.329,-2.84 69.516,-41.154 174.01,-97.915c19.481,-10.407 36.308,-20.339 36.75,-22.231c0.886,-2.366 5.314,-3.785 10.185,-3.785c4.428,-0 8.411,-2.364 8.411,-4.73c-0,-2.838 3.985,-4.73 8.856,-4.73c4.871,-0 8.856,-2.364 8.856,-4.73c-0,-2.838 3.985,-4.73 8.856,-4.73c4.871,-0 8.856,-2.364 8.856,-4.731c-0,-2.837 3.983,-4.73 8.411,-4.73c4.871,0 9.299,-1.418 10.184,-3.785c1.329,-2.837 33.208,-20.812 253.71,-140.011c43.835,-23.651 80.585,-44.464 81.028,-46.356c0.885,-2.364 3.985,-3.785 7.084,-3.785c3.1,0 34.98,-16.08 70.844,-35.948l65.087,-35.477l69.516,17.502c38.078,9.46 71.729,18.92 73.943,20.813c2.657,1.892 11.513,4.73 19.926,6.148c8.413,1.419 23.466,4.731 33.208,7.57c18.155,4.73 37.193,9.932 73.058,19.392c11.07,2.84 26.566,6.623 34.536,8.041c7.97,1.421 15.498,4.259 16.826,6.623c1.329,2.366 8.854,4.259 17.267,4.259c8.414,-0 15.941,1.89 17.27,4.256c1.328,2.364 10.182,5.204 19.038,6.622c9.299,1.419 24.797,4.731 34.536,7.568c38.964,10.408 58.005,15.609 72.172,17.975c7.971,1.419 15.498,4.257 16.827,6.623c1.328,2.364 8.856,4.256 17.267,4.256c8.413,0 16.383,1.893 17.712,4.73c1.328,2.366 9.298,4.73 17.712,4.73c8.411,0 16.381,1.893 17.709,4.73c1.329,2.367 8.414,4.731 15.941,4.731c7.083,-0 16.382,1.892 20.81,4.73c6.199,3.785 56.676,17.975 208.988,59.127c54.02,14.19 59.776,15.609 79.7,21.286c11.07,2.838 26.125,7.568 33.651,9.934c7.527,2.364 17.712,4.256 23.025,4.256c4.871,0 10.628,1.893 11.956,4.73c1.326,2.366 9.297,4.73 17.71,4.73c8.413,0 16.383,1.893 17.712,4.73c1.328,2.367 9.296,4.731 17.71,4.731c8.413,-0 16.383,1.892 17.712,4.73c1.328,2.366 10.625,4.73 20.366,4.73c9.299,-0 17.269,1.892 17.269,4.73c0,2.366 6.64,4.73 15.054,4.73c8.413,-0 16.383,1.892 17.712,4.258c1.328,2.364 8.856,5.202 16.824,6.621c7.97,1.421 23.468,5.203 34.536,8.041c11.07,2.84 27.454,6.623 36.75,8.041c8.856,1.419 16.384,4.259 16.384,6.623c-0,2.366 7.97,4.259 17.267,4.259c9.742,-0 18.155,1.89 19.04,3.782c0.886,2.366 41.179,14.191 89.884,26.49c48.704,12.772 90.325,24.596 92.982,26.962c2.214,2.364 10.627,4.256 18.155,4.256c7.968,0 15.938,1.893 17.267,4.731c1.328,2.366 9.299,4.73 17.712,4.73c8.411,-0 15.939,1.892 17.267,4.256c1.328,2.366 8.856,5.204 16.826,6.623c7.971,1.418 23.467,5.203 34.537,8.041c11.07,2.84 26.565,6.622 34.536,8.041c7.97,1.419 15.496,4.259 16.824,6.623c1.328,2.366 8.856,4.256 17.269,4.256c8.413,0 16.384,1.893 17.712,4.73c1.327,2.366 9.297,4.732 17.71,4.732c8.413,0 16.384,1.891 17.712,4.731c1.328,2.364 9.297,4.73 17.71,4.73c8.413,-0 15.941,1.89 17.269,4.256c1.329,2.364 8.854,5.204 16.824,6.623c7.971,1.418 23.469,5.203 34.537,8.041c11.07,2.838 26.568,6.622 34.536,8.041c7.97,1.419 15.498,4.257 16.826,6.623c1.329,2.364 8.856,4.256 17.267,4.256c8.414,0 15.941,1.893 17.27,4.257c1.328,2.366 8.856,5.203 16.826,6.622c27.009,4.257 97.41,26.017 102.723,31.692c3.542,3.785 2.657,8.989 -3.542,20.341c-4.428,8.513 -22.14,44.935 -39.85,81.359c-17.269,36.421 -32.765,66.694 -34.536,67.64c-2.214,0.947 -3.543,4.73 -3.543,8.988c0,3.783 -3.542,12.772 -7.97,19.392c-4.428,7.096 -12.839,23.179 -18.596,36.424c-6.199,12.771 -12.398,24.124 -14.169,25.069c-2.214,0.945 -3.543,5.675 -3.543,10.879c0,4.73 -1.771,8.989 -4.428,8.989c-2.214,-0 -4.428,4.256 -4.428,9.46c0,5.201 -1.771,9.46 -4.428,9.46c-2.212,-0 -4.426,4.256 -4.426,8.986c0,5.204 -1.771,9.934 -3.542,10.879c-3.1,1.419 -31.879,56.29 -69.072,133.863c-7.528,15.612 -15.056,28.855 -16.827,29.802c-2.214,0.945 -3.542,5.675 -3.542,10.405c-0,4.73 -1.329,9.46 -3.543,10.408c-1.771,0.471 -10.184,16.082 -18.595,34.529c-8.413,17.975 -16.826,33.584 -18.598,34.529c-2.214,0.947 -3.542,5.678 -3.542,10.881c-0,4.73 -1.771,8.987 -4.428,8.987c-2.214,-0 -4.426,4.256 -4.426,9.46c0,5.204 -1.328,9.46 -3.542,9.46c-1.772,0 -6.2,7.096 -9.299,15.138c-3.542,8.512 -16.826,34.529 -28.78,58.179c-12.398,23.179 -27.454,52.978 -33.651,66.223c-6.199,12.772 -12.398,24.124 -14.169,25.07c-2.214,0.947 -3.543,5.677 -3.543,10.407c0,4.73 -1.328,9.46 -3.542,10.405c-1.771,0.946 -10.184,16.083 -18.595,34.53c-8.414,17.975 -16.827,33.584 -18.598,34.531c-2.214,0.945 -3.542,5.675 -3.542,10.405c-0,4.731 -1.329,9.461 -3.543,10.408c-1.771,0.474 -10.182,16.083 -18.595,34.529c-18.598,39.733 -30.551,52.978 -59.776,68.587c-11.954,6.623 -30.108,17.502 -39.85,24.124c-9.739,6.623 -28.78,18.449 -42.062,26.017c-13.284,7.568 -24.796,15.135 -25.682,17.028c-0.886,2.366 -5.314,3.785 -9.74,3.785c-4.428,-0 -8.856,1.418 -9.741,3.311c-0.443,2.364 -11.07,8.986 -23.469,15.609c-11.953,6.622 -23.023,12.771 -24.351,14.19c-1.329,1.419 -10.628,7.096 -20.81,12.772c-10.627,6.148 -27.453,15.609 -37.636,21.286c-10.627,6.149 -19.926,11.824 -21.254,13.243c-1.328,1.421 -7.97,5.677 -15.496,9.462c-7.085,3.783 -18.598,10.405 -25.24,15.136c-6.199,4.73 -14.61,8.515 -18.152,8.515c-3.985,-0 -7.528,1.892 -8.413,3.782c-1.772,4.73 -69.073,48.248 -74.387,48.248c-2.656,0 -4.427,1.893 -4.427,4.257c-0,2.366 -3.543,5.203 -7.528,6.622c-23.466,8.042 -45.161,27.436 -49.589,44.937c-9.742,35.477 16.381,77.102 51.36,83.251c15.941,2.366 21.697,0.474 46.492,-15.135c15.055,-9.934 38.079,-23.179 50.034,-29.328c12.396,-6.623 23.024,-12.771 24.352,-14.19c1.328,-1.419 12.398,-7.568 24.352,-14.191c12.398,-6.622 23.025,-13.245 23.468,-15.611c0.886,-1.89 5.314,-3.309 10.183,-3.309c4.428,0 8.413,-1.421 8.413,-3.785c-0,-1.892 7.527,-7.096 16.826,-11.352c8.856,-4.73 29.223,-16.083 45.164,-25.543c15.938,-9.46 41.619,-24.598 57.559,-34.058c15.941,-8.986 33.651,-19.865 39.85,-24.124c6.199,-4.256 17.269,-10.879 24.352,-14.662c7.528,-3.785 14.17,-8.041 15.498,-9.46c1.328,-1.421 8.413,-5.677 15.496,-9.462c7.527,-3.783 14.169,-8.039 15.498,-9.46c1.328,-1.419 10.184,-6.621 19.926,-12.298c26.123,-14.19 38.964,-22.232 45.161,-28.854c3.1,-2.838 9.742,-7.094 14.613,-8.515c4.87,-1.419 8.856,-5.202 8.856,-7.568c-0,-2.364 2.656,-4.256 5.756,-4.256c7.083,-0 29.665,-20.813 29.665,-27.909c0,-2.838 1.329,-5.202 3.543,-5.202c3.542,0 14.167,-22.705 14.167,-31.22c0,-3.311 1.771,-6.622 3.985,-7.568c2.214,-0.945 11.07,-17.501 20.369,-36.895c9.297,-19.394 17.71,-36.422 19.481,-37.841c1.772,-1.418 9.742,-17.501 18.155,-35.476c8.411,-18.449 16.382,-34.058 17.71,-35.477c4.871,-5.204 13.284,-24.124 13.284,-30.273c-0,-3.785 1.328,-7.567 3.542,-8.515c1.772,-0.945 9.74,-15.135 18.153,-32.163c7.97,-17.03 22.583,-46.829 32.322,-66.223c9.742,-19.394 24.797,-50.612 33.651,-68.587c8.413,-18.447 19.04,-38.315 23.468,-44.937c3.985,-6.623 23.909,-45.882 43.835,-87.507c34.537,-70.954 59.774,-122.511 96.967,-197.249c8.856,-17.502 23.909,-48.72 34.094,-68.587c10.184,-20.339 25.68,-51.557 34.536,-69.059c8.856,-17.975 15.941,-35.476 15.941,-38.788c-0,-3.311 1.328,-7.096 3.542,-8.041c1.771,-0.474 10.182,-15.138 18.153,-32.165c8.413,-17.028 19.04,-37.369 23.025,-44.937c21.253,-37.367 23.024,-43.518 23.467,-70.951c-0,-15.611 -2.657,-36.424 -5.757,-45.884c-6.199,-20.813 -27.451,-46.356 -37.636,-46.356c-3.985,0 -7.085,-1.89 -7.085,-4.256c0,-2.364 -8.411,-5.204 -18.595,-7.097c-36.307,-4.73 -52.248,-8.512 -54.905,-12.771c-1.328,-2.364 -8.854,-4.256 -17.267,-4.256c-8.413,-0 -16.384,-2.364 -17.712,-4.73c-1.328,-2.838 -8.413,-4.731 -15.939,-4.731c-7.085,0 -16.383,-1.892 -20.811,-4.73c-3.986,-2.366 -44.278,-14.19 -89.44,-26.016c-45.163,-11.824 -85.898,-23.65 -90.769,-25.543c-4.871,-2.364 -14.613,-5.675 -22.138,-7.568c-7.085,-1.418 -20.369,-4.73 -28.782,-7.096c-40.735,-11.35 -56.674,-15.135 -71.729,-17.501c-9.297,-1.419 -16.825,-4.257 -16.825,-6.621c0,-2.366 -6.642,-4.258 -15.055,-4.258c-8.413,-0 -16.824,-2.364 -18.152,-4.73c-1.329,-2.838 -9.299,-4.73 -17.712,-4.73c-8.414,-0 -16.382,-2.364 -17.71,-4.73c-1.329,-2.838 -9.299,-4.73 -17.712,-4.73c-8.413,-0 -16.382,-2.364 -17.71,-4.731c-1.329,-2.837 -9.299,-4.73 -17.712,-4.73c-8.413,0 -16.384,-2.364 -17.712,-4.73c-1.326,-2.837 -8.411,-4.73 -15.496,-4.73c-7.085,0 -14.17,-2.366 -15.498,-4.73c-1.328,-2.837 -9.297,-4.73 -17.71,-4.73c-8.413,0 -15.941,-1.892 -17.269,-4.256c-1.328,-2.366 -8.856,-5.204 -16.824,-6.623c-34.979,-6.622 -68.187,-15.137 -182.866,-48.248c-109.808,-31.692 -123.978,-35.477 -143.018,-38.788c-7.968,-1.419 -15.496,-4.256 -16.824,-6.622c-1.329,-2.364 -8.856,-4.257 -17.269,-4.257c-8.411,0 -16.382,-2.366 -17.71,-4.73c-1.329,-2.837 -9.299,-4.73 -17.712,-4.73c-8.411,0 -15.939,-1.892 -17.267,-4.256c-1.329,-2.366 -8.856,-5.204 -16.827,-6.623c-7.97,-1.419 -23.466,-5.204 -34.536,-8.041c-11.07,-2.838 -26.566,-6.623 -34.536,-8.042c-7.971,-1.418 -15.498,-4.258 -16.827,-6.622c-1.326,-2.366 -9.296,-4.256 -17.709,-4.256c-8.414,-0 -18.598,-1.893 -23.024,-4.259c-6.642,-4.256 -22.583,-8.987 -82.799,-25.069c-9.742,-2.366 -25.24,-5.675 -34.536,-7.096c-8.856,-1.419 -17.712,-4.257 -19.041,-6.621c-1.328,-2.366 -8.856,-4.258 -16.824,-4.258c-7.97,-0 -15.941,-1.419 -17.269,-3.312c-3.543,-3.311 -157.186,-47.3 -195.707,-55.815c-7.083,-1.893 -17.267,-4.73 -22.138,-7.094c-4.871,-2.366 -14.612,-5.204 -22.138,-6.149c-7.085,-1.421 -29.225,-7.096 -48.706,-12.772c-19.483,-5.677 -42.949,-12.3 -51.805,-14.664c-9.299,-2.366 -25.238,-6.622 -35.422,-9.46c-10.627,-2.839 -26.566,-6.151 -35.865,-7.57c-8.856,-1.418 -17.709,-4.256 -19.038,-6.62c-1.328,-2.366 -9.299,-4.258 -17.712,-4.258c-8.413,-0 -15.053,-1.893 -15.053,-4.257c0,-2.366 -6.642,-5.204 -14.17,-6.622c-7.97,-1.419 -22.58,-4.731 -32.322,-7.568c-9.741,-2.366 -27.451,-7.096 -39.85,-9.934c-11.955,-3.311 -30.108,-8.041 -39.849,-10.407c-34.98,-9.46 -69.516,-9.46 -86.342,0.947Z" style="fill:#fff;fill-rule:nonzero;"/></g></svg>