<?xml version="1.0" encoding="UTF-8" standalone="no"?><!DOCTYPE svg PUBLIC "-//W3C//DTD SVG 1.1//EN" "http://www.w3.org/Graphics/SVG/1.1/DTD/svg11.dtd"><svg width="100%" height="100%" viewBox="0 0 7542 5540" version="1.1" xmlns="http://www.w3.org/2000/svg" xmlns:xlink="http://www.w3.org/1999/xlink" xml:space="preserve" xmlns:serif="http://www.serif.com/" style="fill-rule:evenodd;clip-rule:evenodd;stroke-linejoin:round;stroke-miterlimit:2;"><g><path d="M7541.82,1384.93c0,-764.366 -620.567,-1384.93 -1384.93,-1384.93l-4771.96,0c-764.366,0 -1384.93,620.567 -1384.93,1384.93l0,2769.86c0,764.367 620.567,1384.93 1384.93,1384.93l4771.96,0c764.366,0 1384.93,-620.566 1384.93,-1384.93l0,-2769.86Z" style="fill:#192236;"/><path d="M2797.7,587.437c-16.546,9.363 -37.442,17.788 -45.279,18.725c-8.708,0 -15.675,3.746 -15.675,9.363c-0,4.683 -7.838,9.362 -17.417,9.362c-9.579,0 -17.412,3.746 -17.412,9.363c-0,4.683 -7.838,9.362 -17.417,9.362c-9.579,0 -17.417,3.746 -17.417,9.363c0,4.683 -7.837,9.363 -17.416,9.363c-9.58,-0 -17.417,3.745 -17.417,9.362c-0,4.683 -5.221,9.363 -11.317,9.363c-6.096,-0 -71.404,33.708 -145.421,74.904c-74.016,40.258 -158.483,87.071 -187.22,102.05c-28.734,14.983 -85.338,46.812 -125.392,70.221c-40.929,24.341 -78.371,43.066 -84.467,43.066c-6.096,0 -12.191,2.813 -13.933,6.554c-3.483,10.3 -75.758,49.625 -90.563,49.625c-6.962,0 -12.187,3.742 -12.187,9.363c-0,4.679 -7.838,9.362 -17.417,9.362c-9.579,0 -17.416,3.746 -17.416,9.363c-0,4.679 -7.838,9.362 -16.546,9.362c-9.579,0 -18.284,2.809 -20.025,6.554c-0.871,4.68 -47.896,31.834 -102.754,62.73c-238.596,131.075 -370.955,205.041 -377.921,212.533c-5.225,4.679 -15.675,8.425 -24.384,8.425c-8.704,-0 -15.67,3.746 -15.67,9.362c-0,4.684 -7.838,9.363 -17.417,9.363c-9.579,-0 -17.417,3.746 -17.417,9.362c0,4.684 -7.837,9.363 -17.416,9.363c-9.58,-0 -17.413,3.746 -17.413,9.362c0,4.684 -7.837,9.363 -16.546,9.363c-9.579,-0 -18.287,2.808 -20.029,7.492c-0.871,3.745 -29.608,21.533 -63.567,39.32c-33.091,17.792 -82.725,45.88 -108.85,61.796c-74.016,45.875 -253.395,144.184 -262.104,144.184c-13.062,-0 -60.954,49.625 -74.016,76.775c-16.546,33.704 -15.675,77.708 2.612,108.608c26.125,45.875 67.05,86.133 86.208,86.133c11.321,0 21.771,3.746 24.38,8.429c2.612,4.68 17.416,10.296 33.091,13.109c15.675,2.808 44.409,9.362 63.567,14.979c19.158,4.679 47.025,12.171 60.954,14.979c14.804,3.746 33.963,9.363 43.542,14.046c9.579,4.679 29.604,10.296 43.537,14.042c14.804,2.808 41.8,10.3 60.954,14.979c19.159,5.621 47.896,12.175 63.567,14.983c15.675,2.808 30.479,8.425 33.092,13.108c2.612,4.68 17.416,8.425 33.962,8.425c16.542,0 32.217,3.746 34.829,9.363c2.613,4.679 18.288,9.362 34.834,9.362c16.541,0 31.346,3.746 33.958,8.425c2.613,4.684 17.417,10.3 33.092,13.109c15.671,2.808 45.279,9.362 66.179,14.979c20.029,5.621 52.246,14.046 71.404,19.662c19.158,4.684 50.504,13.109 69.663,18.725c195.925,52.434 370.083,103.925 384.887,112.355c8.708,5.616 26.992,9.362 40.925,9.362c14.804,0 28.738,3.746 31.35,9.363c2.613,4.679 18.283,9.362 34.829,9.362c16.546,0 31.35,3.746 33.963,8.425c2.612,4.683 20.025,10.3 37.441,13.108c42.671,5.617 141.938,32.771 161.096,44.942c8.709,4.679 29.609,8.425 46.15,8.425c16.546,0 30.479,3.746 30.479,9.363c0,4.683 15.675,9.362 33.963,9.362c19.154,0 36.571,3.746 39.183,8.429c2.613,4.679 17.417,10.296 33.092,13.104c15.671,3.746 42.667,8.43 59.212,11.238c16.542,3.746 38.313,9.362 47.892,14.042c9.579,4.683 29.608,10.3 43.538,14.045c14.804,2.809 40.929,9.363 59.216,14.046c17.413,5.617 48.763,14.042 69.663,18.725c20.025,5.617 50.504,14.042 67.05,18.725c16.546,4.679 107.104,29.959 200.279,56.175c93.175,26.217 177.642,51.496 187.221,56.175c9.575,4.684 29.604,10.3 43.537,12.171c44.409,8.429 147.163,35.579 162.838,44.942c8.708,4.683 26.991,8.425 40.925,8.425c14.804,-0 27.866,3.746 30.479,8.429c2.612,4.679 17.417,10.3 33.087,13.108c15.675,2.809 48.767,10.296 72.275,15.917c24.384,5.617 56.605,13.104 72.275,15.917c15.675,2.808 30.48,8.425 33.092,13.104c2.613,4.683 17.417,8.429 33.958,8.429c16.546,-0 32.221,3.746 34.834,9.362c2.612,4.68 16.546,9.363 30.479,9.363c13.929,-0 26.992,3.746 29.604,8.425c2.613,4.683 20.029,10.3 37.446,13.108c18.283,2.809 48.762,9.363 67.921,14.979c64.437,17.792 104.491,28.088 130.616,33.709c14.805,3.741 33.959,9.362 43.538,14.041c14.804,7.492 175.029,54.305 322.192,94.563c19.158,4.683 49.633,13.108 67.92,17.792c17.417,5.616 47.021,13.108 65.309,17.787c64.437,15.917 74.887,30.896 53.987,75.838c-4.354,10.3 -12.187,27.15 -17.412,37.45c-4.354,10.3 -8.709,27.154 -8.709,37.45c0,10.3 -3.483,18.725 -6.966,18.725c-3.484,-0 -12.192,19.662 -18.288,44.004c-6.966,25.279 -15.675,51.496 -19.158,58.987c-5.225,13.109 -14.8,36.513 -33.088,86.138c-4.354,12.171 -15.675,40.258 -25.254,63.662c-9.579,23.409 -31.346,80.521 -47.891,127.334c-16.546,46.812 -34.834,94.562 -40.059,105.8c-5.225,10.295 -13.058,28.087 -18.283,38.387c-4.354,10.296 -8.708,27.15 -8.708,37.45c-0,10.296 -3.484,18.725 -8.709,18.725c-4.354,0 -8.708,8.425 -8.708,17.788c-0,10.3 -3.483,21.533 -8.708,24.341c-4.355,2.813 -8.709,15.917 -8.709,29.025c0,12.171 -3.483,22.471 -8.708,22.471c-4.354,0 -8.708,6.554 -8.708,14.046c-0,7.487 -3.484,22.471 -8.705,32.767c-4.354,10.3 -12.191,27.154 -17.416,37.454c-4.354,10.296 -8.709,27.15 -8.709,37.45c0,10.296 -3.483,18.725 -8.708,18.725c-4.354,-0 -8.708,6.554 -8.708,14.041c-0,7.492 -3.483,21.534 -7.838,30.9c-6.966,14.98 -14.804,33.705 -35.7,90.817c-4.354,13.108 -12.191,33.704 -17.416,46.813c-4.355,13.108 -12.192,32.77 -16.546,44.004c-4.354,12.171 -13.934,36.516 -20.9,54.304c-6.963,17.787 -26.121,68.346 -41.796,112.35c-15.675,44.004 -32.221,80.521 -35.7,82.392c-3.483,1.875 -6.967,9.362 -6.967,16.854c0,7.491 -3.483,20.596 -7.837,29.958c-7.838,15.917 -20.029,47.75 -34.834,88.013c-12.191,35.575 -28.733,76.77 -36.57,93.625c-4.355,9.362 -7.838,23.408 -7.838,30.895c0,7.492 -3.483,14.046 -8.708,14.046c-4.354,0 -8.709,5.617 -8.709,12.171c0,31.833 -22.641,62.729 -45.279,62.729c-13.062,0 -26.125,-4.679 -28.737,-9.362c-2.613,-5.617 -18.288,-9.363 -34.829,-9.363c-16.546,0 -32.221,-4.679 -34.834,-9.362c-2.612,-5.617 -20.9,-9.363 -39.183,-9.363c-18.287,0 -36.575,-4.683 -39.187,-9.362c-2.613,-5.617 -16.546,-9.363 -31.35,-9.363c-13.93,0 -32.217,-3.746 -40.925,-8.425c-7.838,-4.683 -73.146,-24.346 -145.421,-43.071c-71.404,-18.725 -208.988,-55.237 -304.775,-80.516c-95.788,-25.279 -181.992,-50.559 -191.571,-55.242c-9.579,-3.746 -28.738,-10.3 -43.542,-14.042c-13.929,-2.812 -40.054,-9.362 -56.6,-14.045c-70.533,-19.663 -110.587,-29.963 -137.583,-34.642c-15.675,-2.808 -30.479,-8.425 -33.092,-13.108c-2.608,-4.68 -17.412,-8.425 -33.958,-8.425c-16.546,-0 -32.221,-4.684 -34.833,-9.363c-2.613,-4.683 -18.284,-9.362 -34.83,-9.362c-16.545,-0 -31.35,-3.746 -33.962,-8.43c-2.613,-4.679 -20.025,-10.295 -37.442,-13.104c-46.154,-6.554 -81.854,-15.916 -102.754,-25.279c-9.579,-4.683 -28.733,-10.3 -43.538,-14.046c-13.933,-2.808 -41.799,-9.362 -60.954,-14.979c-33.091,-8.429 -53.12,-14.046 -132.362,-36.517c-18.283,-4.679 -44.408,-11.233 -59.213,-14.041c-13.933,-3.746 -33.958,-10.3 -43.537,-14.984c-9.579,-4.679 -74.017,-23.404 -143.679,-41.195c-69.663,-17.788 -135.842,-36.513 -148.034,-41.196c-21.77,-8.425 -70.533,-22.467 -134.97,-40.258c-94.917,-25.28 -101.013,-28.088 -118.43,-67.409c-8.708,-20.6 -16.541,-44.942 -16.541,-53.371c-0,-9.362 -3.484,-19.658 -8.709,-22.466c-4.354,-2.813 -8.708,-15.917 -8.708,-28.092c0,-12.171 -3.483,-25.279 -8.708,-28.088c-4.354,-2.808 -8.709,-15.916 -8.709,-28.087c0,-12.171 -3.483,-25.279 -8.708,-28.088c-4.354,-2.808 -8.708,-15.916 -8.708,-28.087c-0,-12.171 -3.484,-25.279 -8.709,-28.088c-4.354,-2.808 -8.708,-15.916 -8.708,-28.087c0,-12.171 -3.483,-25.279 -8.704,-28.088c-4.354,-2.808 -8.708,-15.916 -8.708,-28.087c-0,-12.175 -3.484,-25.283 -8.709,-28.092c-4.354,-2.808 -8.708,-15.916 -8.708,-28.087c-0,-12.171 -3.483,-25.279 -8.708,-28.088c-4.355,-2.808 -8.709,-14.979 -8.709,-27.15c0,-11.237 -3.483,-24.345 -6.966,-29.025c-4.355,-5.616 -16.546,-41.195 -26.992,-79.583c-11.321,-38.387 -23.513,-77.708 -27.867,-86.137c-4.354,-9.363 -7.837,-25.28 -7.837,-34.642c-0,-10.296 -3.484,-21.533 -8.709,-24.342c-4.354,-2.808 -8.708,-14.979 -8.708,-27.15c0,-11.237 -3.483,-24.346 -7.837,-29.962c-4.35,-4.68 -22.638,-57.113 -40.055,-116.096c-18.287,-58.988 -35.704,-111.417 -40.054,-116.096c-4.354,-5.621 -7.837,-18.729 -7.837,-29.963c-0,-12.17 -3.484,-24.341 -8.709,-27.149c-4.354,-2.813 -8.708,-15.917 -8.708,-28.092c0,-12.171 -3.483,-25.279 -8.708,-28.088c-4.354,-2.808 -8.709,-15.916 -8.709,-29.02c0,-12.175 -3.483,-22.471 -8.708,-22.471c-4.354,-0 -8.708,-9.363 -8.708,-21.538c-0,-24.341 -18.284,-72.092 -27.863,-72.092c-4.354,0.001 -6.966,-4.679 -6.966,-10.295c-0,-49.625 -117.559,-57.113 -161.967,-9.367c-50.504,52.433 -50.504,69.288 -6.967,207.854c21.771,69.284 41.8,136.692 44.413,151.675c2.608,14.042 7.833,28.088 12.187,30.896c4.354,2.808 7.838,13.108 7.838,23.408c-0,9.363 3.483,25.28 7.837,34.642c4.354,8.425 13.063,34.642 19.159,58.046c6.095,23.408 13.933,45.879 18.287,50.558c3.483,5.617 6.967,18.725 6.967,29.963c-0,12.171 4.35,24.341 8.704,27.15c4.354,2.808 8.708,15.916 8.708,28.087c0,12.171 4.354,25.279 8.709,28.088c4.354,2.812 8.708,17.791 8.708,33.708c-0,14.979 4.354,27.15 8.708,27.15c5.225,0 8.709,12.171 8.709,27.154c-0,15.917 3.483,30.896 8.708,33.704c5.225,2.809 8.708,15.917 8.708,29.025c0,12.171 4.354,22.471 8.704,22.471c5.225,0 8.709,12.171 8.709,27.15c-0,15.917 4.354,30.896 8.708,33.704c5.225,2.809 8.708,15.917 8.708,28.092c0,12.171 4.355,25.279 8.709,28.087c4.354,2.809 8.708,15.917 8.708,28.088c0,12.171 4.354,25.279 8.708,28.087c4.355,2.809 8.709,14.042 8.709,24.342c-0,9.363 3.483,25.279 7.837,34.642c5.221,8.429 23.509,64.604 40.925,123.587c17.417,58.984 34.834,111.417 38.313,117.034c2.612,4.683 10.45,28.087 16.546,51.495c14.804,55.238 24.383,76.771 47.025,104.863c21.766,26.212 102.75,75.837 141.066,86.133c50.504,13.109 104.492,25.279 133.229,30.9c15.675,2.809 30.475,8.425 33.088,13.105c2.612,4.683 18.287,8.429 34.833,8.429c16.546,-0 29.609,3.745 29.609,8.425c-0,4.683 13.058,10.3 28.733,13.108c14.804,3.746 41.8,8.425 58.342,11.233c16.545,3.746 38.316,9.363 47.895,14.046c9.58,4.679 29.605,10.3 43.538,13.108c30.479,5.617 34.833,6.555 278.65,76.775c218.567,61.792 222.05,62.73 374.437,102.05c33.963,8.43 67.921,19.663 75.759,24.346c8.708,4.679 26.996,8.425 40.929,8.425c14.8,0 28.733,4.679 31.346,9.363c2.612,5.616 18.287,9.362 34.833,9.362c16.546,0 32.217,4.679 34.829,9.363c2.613,5.616 18.288,9.362 34.834,9.362c16.545,0 32.216,3.746 34.829,9.363c2.612,4.683 15.675,9.362 27.866,9.362c23.513,0 73.146,14.979 100.142,29.025c8.704,4.679 26.992,8.425 40.925,8.425c14.804,0 27.867,3.746 30.479,8.429c2.613,4.68 20.025,10.296 37.442,13.105c44.408,6.554 82.725,16.854 355.279,95.5c101.013,29.025 197.671,57.112 215.954,61.795c17.417,4.68 48.767,13.109 69.663,18.725c20.029,5.617 58.346,12.171 84.466,14.98c26.125,2.808 51.38,8.425 55.73,13.108c5.225,4.679 33.091,8.425 62.7,8.425c67.05,-0 103.62,-24.342 134.1,-88.946c12.191,-26.212 24.379,-48.683 26.991,-51.492c2.613,-2.808 10.45,-24.345 17.417,-49.625c6.096,-24.341 13.933,-44.004 16.546,-44.004c3.483,0 11.321,-20.596 17.416,-46.812c6.096,-25.279 14.805,-46.813 19.155,-46.813c3.483,0 6.966,-6.554 6.966,-14.046c0,-7.487 3.484,-21.533 7.838,-30.895c4.354,-8.425 12.191,-29.025 18.287,-44.005c6.096,-15.916 13.934,-34.641 16.546,-42.133c3.483,-7.487 12.192,-33.704 19.158,-58.983c6.092,-24.342 14.8,-44.004 18.284,-44.004c3.483,-0 6.966,-6.555 6.966,-14.046c0,-7.488 3.484,-21.534 7.838,-30.896c4.354,-8.425 11.321,-26.217 15.675,-39.321c15.675,-41.196 30.475,-79.583 38.312,-96.437c4.355,-8.425 26.125,-64.6 47.896,-124.525c20.896,-58.984 42.667,-115.159 46.15,-123.584c4.354,-8.429 12.192,-27.154 17.417,-42.133c5.225,-14.046 13.933,-36.517 19.158,-51.496c5.225,-14.042 13.059,-32.767 17.413,-41.196c4.354,-9.362 7.837,-23.404 7.837,-30.896c0,-7.491 4.354,-14.045 8.709,-14.045c5.225,-0 8.708,-10.296 8.708,-23.405c-0,-13.108 3.483,-23.408 6.967,-23.408c4.354,0 13.062,-20.596 19.158,-46.812c6.096,-25.28 14.8,-46.813 19.154,-46.813c3.483,0 6.967,-6.554 6.967,-14.046c-0,-7.487 7.837,-34.641 18.287,-58.983c10.45,-24.342 20.9,-52.429 25.254,-62.729c20.896,-58.988 38.313,-103.925 64.438,-166.654c12.191,-29.963 22.641,-56.18 22.641,-59.925c0.001,-3.742 12.188,-35.575 26.992,-72.092c14.804,-36.513 30.479,-74.9 33.963,-85.2c3.483,-10.3 14.8,-38.388 25.25,-62.729c10.45,-24.342 18.287,-51.496 18.287,-58.984c0,-7.491 4.354,-14.045 8.708,-14.045c5.225,-0 8.709,-8.425 8.709,-18.725c-0,-10.3 4.354,-18.725 8.708,-18.725c5.225,-0 8.708,-6.555 8.708,-14.046c0.001,-18.725 39.184,-60.854 56.601,-60.854c6.966,-0 13.062,-4.684 13.062,-9.363c0,-5.621 7.838,-9.362 17.413,-9.362c9.579,-0 17.416,-4.684 17.416,-9.363c0,-5.621 7.838,-9.362 16.546,-9.362c9.579,-0 18.288,-3.746 20.029,-8.43c1.742,-3.745 30.475,-22.47 63.567,-41.195c33.958,-17.788 101.879,-55.238 152.387,-83.325c50.505,-27.155 93.171,-52.434 94.042,-56.18c1.742,-4.679 10.45,-7.487 20.029,-7.487c8.709,-0 16.546,-4.683 16.546,-9.363c0,-5.616 7.837,-9.362 17.417,-9.362c9.579,-0 17.416,-4.683 17.416,-9.363c0,-5.62 7.834,-9.362 17.413,-9.362c9.579,-0 17.417,-4.683 17.417,-9.363c-0.001,-5.62 7.837,-9.362 17.416,-9.362c9.579,-0 17.417,-4.683 17.417,-9.367c-0,-5.616 7.833,-9.362 16.542,-9.362c9.579,-0 18.287,-2.809 20.029,-7.488c1.741,-3.746 51.375,-33.708 111.462,-66.475c158.479,-87.075 220.308,-124.525 232.496,-141.375c6.096,-7.491 11.321,-38.387 11.321,-67.412c-0,-58.984 -8.709,-76.775 -64.438,-127.334c-21.77,-18.725 -60.954,-13.108 -114.071,16.855c-26.995,14.979 -54.862,28.087 -61.825,28.087c-6.966,0 -12.191,3.746 -12.191,9.363c-0,4.683 -7.838,9.362 -17.417,9.362c-9.579,0 -17.416,3.746 -17.416,9.363c-0,4.683 -7.838,9.362 -17.417,9.362c-9.575,0 -17.413,3.746 -17.413,9.363c0,4.683 -7.837,9.362 -17.416,9.362c-9.579,0 -17.417,3.746 -17.417,9.363c0,4.683 -7.837,9.362 -17.417,9.362c-9.579,0 -17.412,3.746 -17.412,9.363c-0,4.683 -7.838,9.362 -17.417,9.362c-9.579,0 -17.416,3.746 -17.416,9.363c-0,4.683 -7.838,9.362 -16.546,9.362c-9.579,0 -18.284,2.813 -20.025,6.554c-2.613,6.554 -153.259,91.754 -368.342,207.854c-42.671,23.405 -79.242,45.875 -80.983,49.621c-1.742,4.679 -10.45,7.492 -20.029,7.492c-8.709,-0 -16.546,3.742 -16.546,9.362c-0,4.68 -7.838,9.363 -17.417,9.363c-9.575,-0 -17.412,3.742 -17.412,9.362c-0,4.68 -7.838,9.363 -17.417,9.363c-9.579,-0 -17.417,3.746 -17.417,9.362c0,4.68 -7.837,9.363 -17.416,9.363c-9.58,-0 -17.413,3.746 -17.413,9.362c0,4.68 -21.771,9.363 -47.896,9.363c-26.121,-0 -47.891,-4.683 -47.891,-9.363c-0,-5.616 -15.675,-9.362 -33.963,-9.362c-19.154,-0 -37.442,-4.683 -40.054,-9.363c-2.613,-5.616 -18.288,-9.362 -34.833,-9.362c-16.542,-0 -32.217,-4.683 -34.83,-9.363c-2.612,-5.62 -18.287,-9.362 -34.833,-9.362c-16.542,-0 -32.217,-3.746 -34.829,-9.363c-2.613,-5.62 -18.288,-9.362 -34.833,-9.362c-16.546,-0 -31.346,-3.746 -33.959,-8.429c-2.612,-4.679 -17.416,-10.3 -33.091,-13.109c-44.409,-8.425 -90.563,-20.595 -420.588,-114.225c-197.667,-56.175 -224.662,-64.6 -280.392,-79.579c-20.9,-4.683 -52.25,-13.108 -69.662,-18.725c-18.288,-4.683 -44.413,-11.237 -59.217,-14.046c-13.929,-3.745 -33.958,-9.362 -43.537,-14.045c-9.579,-4.68 -28.738,-10.296 -43.538,-13.105c-13.933,-1.875 -43.541,-9.362 -65.308,-14.983c-21.771,-5.617 -52.25,-13.108 -67.925,-15.917c-15.671,-2.808 -30.475,-8.425 -33.088,-13.104c-2.612,-4.683 -17.416,-8.429 -33.962,-8.429c-16.542,0 -31.346,-3.746 -33.958,-8.425c-2.613,-4.683 -17.417,-10.3 -33.092,-13.108c-15.675,-2.809 -44.408,-9.363 -63.567,-14.979c-19.158,-4.684 -51.375,-14.046 -71.404,-19.663c-20.9,-4.683 -52.246,-13.108 -69.662,-18.725c-18.288,-4.683 -44.409,-11.237 -59.213,-14.046c-13.933,-3.741 -33.963,-10.296 -43.542,-14.979c-14.8,-6.554 -212.47,-62.729 -326.541,-92.692c-85.338,-21.533 -146.292,-38.383 -170.675,-46.812c-14.804,-5.617 -34.829,-9.363 -45.279,-9.363c-9.58,0 -20.9,-4.679 -23.513,-9.362c-2.612,-5.617 -18.287,-9.363 -34.829,-9.363c-16.546,0 -32.221,-4.679 -34.833,-9.362c-2.613,-5.617 -18.288,-9.363 -34.83,-9.363c-16.545,0 -32.22,-4.683 -34.833,-9.362c-2.612,-5.617 -18.287,-9.363 -34.829,-9.363c-16.546,0 -32.221,-4.683 -34.833,-9.362c-2.613,-5.617 -19.159,-9.363 -35.705,-9.363c-16.541,0 -29.604,-4.683 -29.604,-9.362c0,-5.617 -15.675,-9.363 -34.833,-9.363c-19.154,0 -34.829,-4.683 -34.829,-9.362c-0,-5.617 -13.063,-9.363 -29.609,-9.363c-16.545,0 -33.087,-4.683 -35.7,-9.362c-2.612,-5.621 -18.287,-9.363 -34.833,-9.363c-16.546,0 -32.217,-4.683 -34.829,-9.362c-2.613,-5.621 -18.288,-9.363 -34.833,-9.363c-16.546,0 -32.217,-4.683 -34.83,-9.362c-2.612,-5.621 -18.287,-9.367 -34.833,-9.367c-16.546,0 -32.217,-4.679 -34.829,-9.362c-2.613,-5.617 -16.546,-9.363 -31.35,-9.363c-13.933,0 -32.221,-3.741 -40.925,-9.362c-7.838,-4.679 -71.404,-24.342 -141.071,-42.129c-69.662,-18.725 -133.229,-38.388 -141.067,-43.071c-8.708,-4.679 -21.766,-8.425 -30.475,-8.425c-7.837,-0 -26.125,-3.746 -40.929,-8.425c-14.8,-4.684 -43.537,-13.109 -63.566,-18.725c-70.534,-19.663 -111.459,-32.771 -117.555,-37.454c-13.062,-12.171 21.771,-40.259 91.434,-73.963c17.412,-8.429 32.216,-18.725 32.216,-22.471c0,-4.683 7.838,-7.491 16.546,-7.491c9.579,-0 18.288,-2.809 20.029,-7.488c2.613,-5.621 136.713,-81.458 342.217,-193.808c38.313,-20.6 71.404,-40.259 72.275,-44.004c1.742,-4.684 10.45,-7.492 20.029,-7.492c8.709,-0 16.542,-4.679 16.542,-9.363c-0,-5.616 7.837,-9.362 17.417,-9.362c9.579,-0 17.416,-4.679 17.416,-9.363c0,-5.616 7.838,-9.362 17.417,-9.362c9.579,-0 17.417,-4.679 17.417,-9.363c-0,-5.616 7.833,-9.362 16.541,-9.362c9.579,-0 18.288,-2.808 20.029,-7.492c2.613,-5.616 65.309,-41.196 498.959,-277.133c86.208,-46.813 158.483,-88.008 159.354,-91.754c1.742,-4.679 7.837,-7.492 13.933,-7.492c6.096,0 68.792,-31.829 139.325,-71.154l128.004,-70.221l136.713,34.642c74.887,18.725 141.067,37.45 145.421,41.196c5.225,3.745 22.641,9.362 39.187,12.17c16.546,2.809 46.15,9.363 65.309,14.984c35.704,9.362 73.145,19.658 143.679,38.383c21.771,5.621 52.246,13.108 67.921,15.917c15.675,2.812 30.479,8.429 33.091,13.108c2.613,4.683 17.413,8.429 33.959,8.429c16.545,0 31.35,3.742 33.962,8.425c2.613,4.679 20.025,10.3 37.442,13.109c18.287,2.808 48.766,9.362 67.921,14.979c76.629,20.6 114.075,30.896 141.937,35.579c15.675,2.808 30.479,8.425 33.092,13.108c2.612,4.679 17.416,8.425 33.958,8.425c16.546,0 32.221,3.746 34.833,9.363c2.613,4.683 18.288,9.362 34.834,9.362c16.541,0 32.216,3.746 34.829,9.363c2.612,4.683 16.546,9.362 31.35,9.362c13.929,0 32.217,3.746 40.925,9.363c12.192,7.491 111.462,35.579 411.008,117.033c106.238,28.088 117.559,30.896 156.742,42.133c21.771,5.617 51.379,14.98 66.179,19.663c14.804,4.679 34.833,8.425 45.283,8.425c9.58,-0 20.9,3.746 23.513,9.362c2.608,4.684 18.283,9.363 34.829,9.363c16.546,-0 32.221,3.746 34.833,9.362c2.613,4.684 18.284,9.363 34.83,9.363c16.545,-0 32.22,3.746 34.833,9.362c2.612,4.684 20.896,9.363 40.054,9.363c18.288,-0 33.963,3.746 33.963,9.362c-0,4.684 13.058,9.363 29.604,9.363c16.546,-0 32.221,3.746 34.833,8.429c2.613,4.679 17.417,10.296 33.088,13.104c15.675,2.813 46.154,10.3 67.92,15.917c21.771,5.621 53.992,13.108 72.275,15.917c17.417,2.808 32.221,8.429 32.221,13.108c0,4.683 15.675,8.429 33.959,8.429c19.158,0 35.704,3.742 37.445,7.488c1.742,4.683 80.984,28.087 176.771,52.433c95.784,25.279 177.638,48.683 182.863,53.367c4.354,4.679 20.9,8.425 35.704,8.425c15.671,-0 31.346,3.745 33.958,9.362c2.613,4.683 18.288,9.363 34.834,9.363c16.541,-0 31.345,3.745 33.958,8.425c2.612,4.683 17.417,10.3 33.092,13.108c15.675,2.808 46.15,10.3 67.92,15.917c21.771,5.62 52.246,13.108 67.921,15.916c15.675,2.809 30.475,8.429 33.088,13.109c2.612,4.683 17.416,8.425 33.962,8.425c16.546,-0 32.221,3.745 34.834,9.362c2.608,4.683 18.283,9.367 34.829,9.367c16.546,-0 32.221,3.741 34.833,9.362c2.613,4.679 18.283,9.363 34.829,9.363c16.546,-0 31.35,3.741 33.963,8.425c2.612,4.679 17.412,10.3 33.087,13.108c15.675,2.808 46.154,10.3 67.921,15.917c21.771,5.616 52.25,13.108 67.921,15.916c15.675,2.809 30.479,8.425 33.092,13.109c2.612,4.679 17.416,8.425 33.958,8.425c16.546,-0 31.35,3.746 33.962,8.425c2.613,4.683 17.417,10.3 33.092,13.108c53.117,8.425 191.571,51.496 202.021,62.729c6.967,7.492 5.225,17.792 -6.967,40.263c-8.708,16.85 -43.541,88.941 -78.371,161.037c-33.962,72.092 -64.437,132.013 -67.92,133.884c-4.355,1.875 -6.967,9.362 -6.967,17.791c-0,7.488 -6.967,25.279 -15.675,38.384c-8.708,14.045 -25.25,45.879 -36.571,72.095c-12.192,25.28 -24.383,47.75 -27.867,49.621c-4.354,1.871 -6.966,11.234 -6.966,21.534c-0,9.362 -3.484,17.791 -8.709,17.791c-4.354,0 -8.708,8.425 -8.708,18.725c0,10.296 -3.483,18.725 -8.708,18.725c-4.35,0 -8.704,8.425 -8.704,17.788c-0,10.3 -3.484,19.662 -6.967,21.533c-6.096,2.808 -62.696,111.417 -135.842,264.963c-14.804,30.9 -29.608,57.112 -33.091,58.987c-4.355,1.871 -6.967,11.233 -6.967,20.596c-0,9.362 -2.613,18.725 -6.967,20.6c-3.483,0.933 -20.029,31.833 -36.571,68.346c-16.545,35.579 -33.091,66.475 -36.575,68.346c-4.354,1.875 -6.966,11.237 -6.966,21.537c-0,9.363 -3.484,17.788 -8.709,17.788c-4.354,-0 -8.704,8.425 -8.704,18.725c0,10.3 -2.612,18.725 -6.966,18.725c-3.484,-0 -12.192,14.045 -18.288,29.962c-6.967,16.85 -33.092,68.346 -56.6,115.158c-24.383,45.88 -53.992,104.863 -66.179,131.08c-12.192,25.279 -24.383,47.75 -27.867,49.62c-4.354,1.875 -6.966,11.238 -6.966,20.6c-0,9.363 -2.613,18.725 -6.967,20.596c-3.483,1.871 -20.029,31.834 -36.571,68.346c-16.546,35.579 -33.092,66.475 -36.575,68.35c-4.354,1.871 -6.967,11.233 -6.967,20.596c0,9.362 -2.612,18.725 -6.966,20.6c-3.484,0.937 -20.025,31.833 -36.571,68.346c-36.575,78.646 -60.083,104.862 -117.558,135.758c-23.509,13.108 -59.213,34.642 -78.371,47.75c-19.154,13.108 -56.6,36.517 -82.721,51.496c-26.125,14.979 -48.767,29.958 -50.508,33.704c-1.742,4.683 -10.45,7.492 -19.155,7.492c-8.708,-0 -17.416,2.808 -19.158,6.554c-0.871,4.679 -21.771,17.787 -46.154,30.896c-23.508,13.108 -45.279,25.279 -47.892,28.087c-2.612,2.809 -20.9,14.046 -40.925,25.279c-20.9,12.171 -53.991,30.896 -74.016,42.134c-20.9,12.171 -39.188,23.404 -41.8,26.212c-2.613,2.813 -15.675,11.238 -30.475,18.729c-13.934,7.488 -36.575,20.596 -49.638,29.959c-12.192,9.362 -28.733,16.854 -35.7,16.854c-7.837,-0 -14.804,3.746 -16.546,7.487c-3.483,9.363 -135.841,95.5 -146.291,95.5c-5.225,0 -8.709,3.746 -8.709,8.425c0,4.684 -6.966,10.3 -14.804,13.109c-46.15,15.916 -88.817,54.304 -97.525,88.946c-19.158,70.22 32.217,152.612 101.008,164.783c31.35,4.683 42.671,0.937 91.434,-29.958c29.608,-19.663 74.887,-45.88 98.4,-58.05c24.379,-13.109 45.279,-25.28 47.891,-28.088c2.613,-2.808 24.384,-14.979 47.892,-28.087c24.383,-13.109 45.283,-26.217 46.154,-30.9c1.742,-3.742 10.45,-6.55 20.025,-6.55c8.709,-0 16.546,-2.813 16.546,-7.492c0,-3.746 14.804,-14.046 33.092,-22.471c17.416,-9.362 57.471,-31.833 88.821,-50.558c31.345,-18.725 81.85,-48.688 113.2,-67.413c31.35,-17.787 66.179,-39.321 78.37,-47.75c12.192,-8.425 33.963,-21.533 47.892,-29.021c14.804,-7.491 27.867,-15.916 30.479,-18.725c2.613,-2.812 16.546,-11.237 30.475,-18.729c14.804,-7.487 27.867,-15.912 30.479,-18.725c2.613,-2.808 20.03,-13.104 39.188,-24.341c51.375,-28.088 76.629,-44.005 88.817,-57.113c6.095,-5.617 19.158,-14.042 28.737,-16.854c9.579,-2.808 17.417,-10.296 17.417,-14.979c-0,-4.679 5.225,-8.425 11.321,-8.425c13.929,-0 58.341,-41.196 58.341,-55.242c0,-5.617 2.613,-10.296 6.967,-10.296c6.967,0 27.862,-44.941 27.862,-61.796c0,-6.554 3.484,-13.108 7.838,-14.979c4.354,-1.871 21.771,-34.641 40.058,-73.029c18.284,-38.387 34.829,-72.092 38.313,-74.9c3.483,-2.808 19.158,-34.642 35.704,-70.221c16.542,-36.516 32.217,-67.412 34.829,-70.221c9.579,-10.3 26.125,-47.75 26.125,-59.92c0,-7.492 2.613,-14.98 6.967,-16.855c3.483,-1.87 19.154,-29.958 35.7,-63.662c15.675,-33.708 44.412,-92.692 63.566,-131.079c19.159,-38.388 48.767,-100.179 66.18,-135.759c16.545,-36.512 37.445,-75.837 46.154,-88.945c7.837,-13.109 47.021,-90.817 86.208,-173.209c67.921,-140.441 117.554,-242.491 190.7,-390.425c17.417,-34.641 47.021,-96.433 67.05,-135.758c20.029,-40.258 50.504,-102.05 67.921,-136.692c17.417,-35.579 31.35,-70.221 31.35,-76.775c-0,-6.554 2.612,-14.046 6.967,-15.916c3.483,-0.938 20.025,-29.963 35.7,-63.667c16.545,-33.704 37.445,-73.967 45.283,-88.946c41.796,-73.962 45.279,-86.137 46.15,-140.437c-0,-30.9 -5.225,-72.096 -11.321,-90.821c-12.192,-41.196 -53.987,-91.754 -74.017,-91.754c-7.837,-0 -13.933,-3.742 -13.933,-8.425c0,-4.68 -16.542,-10.3 -36.571,-14.046c-71.404,-9.363 -102.754,-16.85 -107.979,-25.279c-2.612,-4.68 -17.412,-8.425 -33.958,-8.425c-16.546,-0 -32.221,-4.68 -34.834,-9.363c-2.612,-5.617 -16.545,-9.362 -31.345,-9.362c-13.934,-0 -32.221,-3.746 -40.93,-9.363c-7.837,-4.683 -87.079,-28.087 -175.895,-51.496c-88.821,-23.404 -168.934,-46.812 -178.513,-50.558c-9.579,-4.679 -28.737,-11.233 -43.537,-14.979c-13.934,-2.809 -40.059,-9.363 -56.605,-14.046c-80.112,-22.467 -111.458,-29.958 -141.066,-34.642c-18.284,-2.808 -33.088,-8.425 -33.088,-13.104c0,-4.683 -13.062,-8.429 -29.608,-8.429c-16.546,-0 -33.088,-4.679 -35.7,-9.363c-2.613,-5.616 -18.288,-9.362 -34.833,-9.362c-16.546,-0 -32.217,-4.679 -34.83,-9.363c-2.612,-5.616 -18.287,-9.362 -34.833,-9.362c-16.546,-0 -32.217,-4.679 -34.829,-9.363c-2.613,-5.616 -18.288,-9.362 -34.834,-9.362c-16.545,-0 -32.22,-4.679 -34.833,-9.363c-2.608,-5.616 -16.542,-9.362 -30.475,-9.362c-13.933,-0 -27.867,-4.683 -30.479,-9.363c-2.613,-5.616 -18.283,-9.362 -34.829,-9.362c-16.546,-0 -31.35,-3.746 -33.963,-8.425c-2.612,-4.683 -17.416,-10.3 -33.087,-13.108c-68.792,-13.109 -134.1,-29.963 -359.634,-95.5c-215.954,-62.73 -243.82,-70.221 -281.266,-76.775c-15.671,-2.809 -30.475,-8.425 -33.088,-13.109c-2.612,-4.679 -17.416,-8.425 -33.962,-8.425c-16.542,0 -32.217,-4.683 -34.829,-9.362c-2.613,-5.617 -18.288,-9.363 -34.834,-9.363c-16.541,0 -31.346,-3.746 -33.958,-8.425c-2.613,-4.683 -17.417,-10.3 -33.092,-13.108c-15.675,-2.808 -46.15,-10.3 -67.921,-15.917c-21.77,-5.616 -52.245,-13.108 -67.92,-15.916c-15.675,-2.809 -30.48,-8.43 -33.092,-13.109c-2.608,-4.683 -18.283,-8.425 -34.829,-8.425c-16.546,0 -36.575,-3.746 -45.279,-8.429c-13.063,-8.425 -44.413,-17.787 -162.838,-49.621c-19.158,-4.683 -49.637,-11.233 -67.921,-14.046c-17.416,-2.808 -34.833,-8.425 -37.445,-13.104c-2.613,-4.683 -17.417,-8.429 -33.088,-8.429c-15.675,0 -31.35,-2.808 -33.963,-6.554c-6.966,-6.554 -309.129,-93.625 -384.887,-110.479c-13.929,-3.746 -33.958,-9.363 -43.538,-14.042c-9.579,-4.683 -28.737,-10.3 -43.537,-12.171c-13.933,-2.812 -57.475,-14.046 -95.788,-25.279c-38.316,-11.237 -84.466,-24.346 -101.883,-29.025c-18.287,-4.683 -49.633,-13.108 -69.662,-18.725c-20.9,-5.621 -52.246,-12.175 -70.534,-14.983c-17.416,-2.809 -34.829,-8.425 -37.441,-13.104c-2.613,-4.684 -18.288,-8.43 -34.834,-8.43c-16.546,0 -29.604,-3.745 -29.604,-8.425c0,-4.683 -13.062,-10.3 -27.867,-13.108c-15.675,-2.808 -44.408,-9.362 -63.566,-14.979c-19.159,-4.683 -53.988,-14.046 -78.371,-19.663c-23.513,-6.554 -59.213,-15.916 -78.371,-20.6c-68.792,-18.725 -136.712,-18.725 -169.804,1.875Z" style="fill:#fff;fill-rule:nonzero;"/></g></svg>